<svg xmlns="http://www.w3.org/2000/svg" viewBox="0 0 64 64">
  <circle cx="32" cy="35" r="28" fill="#f6b73c"/>
  <g transform="translate(32 35)">
    <path d="M0 0L0-24A24 24 0 0 1 20.8-12Z" fill="#ff4d6d"/>
    <path d="M0 0L20.8-12A24 24 0 0 1 20.8 12Z" fill="#ffb703"/>
    <path d="M0 0L20.8 12A24 24 0 0 1 0 24Z" fill="#06d6a0"/>
    <path d="M0 0L0 24A24 24 0 0 1-20.8 12Z" fill="#3a86ff"/>
    <path d="M0 0L-20.8 12A24 24 0 0 1-20.8-12Z" fill="#8338ec"/>
    <path d="M0 0L-20.8-12A24 24 0 0 1 0-24Z" fill="#ff7b00"/>
    <circle r="6" fill="#fff"/>
  </g>
  <path d="M32 15 25.5 3h13z" fill="#fff" stroke="#2a1466" stroke-width="2" stroke-linejoin="round"/>
</svg>
